<?xml version="1.0" encoding="UTF-8"?>
<svg id="Line" xmlns="http://www.w3.org/2000/svg" viewBox="0 0 500 500">
  <path d="m118.12,305.3h-46.68c-5.31,0-9.6,4.29-9.6,9.6s4.29,9.6,9.6,9.6h46.68c5.31,0,9.6-4.29,9.6-9.6s-4.29-9.6-9.6-9.6Z" fill="#414042" stroke-width="0"/>
  <path d="m204.51,305.3h-46.69c-5.31,0-9.6,4.29-9.6,9.6s4.29,9.6,9.6,9.6h46.69c5.31,0,9.6-4.29,9.6-9.6s-4.29-9.6-9.6-9.6Z" fill="#414042" stroke-width="0"/>
  <path d="m478.4,222.43v-112.93c0-15.89-12.92-28.8-28.8-28.8H38.81c-15.89,0-28.81,12.91-28.81,28.8v238.03c0,15.89,12.92,28.8,28.81,28.8h295.22c7.07,8.19,15.44,15.4,24.95,21.35l30.21,18.89c2.95,1.83,6.25,2.75,9.58,2.75s6.64-.92,9.62-2.77l30.19-18.87c12.9-8.06,23.71-18.46,32.03-30.46,2.61-2.79,4.68-6.1,6.03-9.76t.01-.03c8.66-15.82,13.36-33.77,13.36-52.56v-64.07c0-7.98-4.56-15.04-11.6-18.36ZM38.81,99.89h410.79c5.3,0,9.59,4.31,9.59,9.6v57.23H29.21v-57.23c0-5.3,4.31-9.6,9.6-9.6Zm0,257.23c-5.29,0-9.6-4.31-9.6-9.6v-161.6h429.98v30.24l-54.98-17.37c-3.56-1.13-7.32-1.11-10.88.01l-71.57,22.6c-8.51,2.68-14.2,10.46-14.2,19.39v64.07c0,18.66,4.64,36.54,13.18,52.27H38.81Zm420.11-7.41c-1,1.78-2.08,3.52-3.22,5.21-5.39,8.09-12.12,15.32-20.03,21.39-2.33,1.79-4.77,3.49-7.3,5.07l-29.6,18.51-29.62-18.51c-2.53-1.58-4.98-3.28-7.31-5.07-7.17-5.52-13.4-11.99-18.51-19.19-10.67-15-16.59-33.12-16.59-52.27v-64.07c0-.49.32-.93.79-1.08l70.91-22.6,60.75,19.19,10.83,3.42c.46.14.78.58.78,1.07v64.07c0,16.09-4.18,31.46-11.87,44.86Z" fill="#414042" stroke-width="0"/>
  <path d="m447.81,260.61c-4.11-3.37-10.15-2.76-13.5,1.35l-42.21,51.57-24.78-20.65c-4.09-3.39-10.13-2.84-13.53,1.23-3.39,4.08-2.84,10.13,1.23,13.53l32.22,26.85c1.73,1.44,3.91,2.22,6.15,2.22.3,0,.61-.02.91-.05,2.55-.24,4.9-1.49,6.52-3.48l48.34-59.07c3.37-4.1,2.76-10.14-1.35-13.5Z" fill="#414042" stroke-width="0"/>
</svg>